<?xml version="1.0" encoding="UTF-8"?>
<svg xmlns="http://www.w3.org/2000/svg" xmlns:xlink="http://www.w3.org/1999/xlink" width="288" height="252" viewBox="0 0 288 252">
<defs>
<g>
<g id="glyph-0-0">
<path d="M 2.421875 -6.359375 C 1.84375 -6.359375 1.3125 -6.09375 0.984375 -5.671875 C 0.578125 -5.109375 0.375 -4.25 0.375 -3.078125 C 0.375 -0.9375 1.078125 0.203125 2.421875 0.203125 C 3.734375 0.203125 4.453125 -0.9375 4.453125 -3.03125 C 4.453125 -4.25 4.265625 -5.078125 3.859375 -5.671875 C 3.53125 -6.109375 3.015625 -6.359375 2.421875 -6.359375 Z M 2.421875 -5.671875 C 3.25 -5.671875 3.671875 -4.828125 3.671875 -3.09375 C 3.671875 -1.28125 3.265625 -0.4375 2.40625 -0.4375 C 1.578125 -0.4375 1.171875 -1.3125 1.171875 -3.0625 C 1.171875 -4.828125 1.578125 -5.671875 2.421875 -5.671875 Z M 2.421875 -5.671875 "/>
</g>
<g id="glyph-0-1">
<path d="M 2.28125 -4.53125 L 2.28125 0 L 3.046875 0 L 3.046875 -6.359375 L 2.546875 -6.359375 C 2.265625 -5.390625 2.09375 -5.25 0.890625 -5.09375 L 0.890625 -4.53125 Z M 2.28125 -4.53125 "/>
</g>
<g id="glyph-0-2">
<path d="M 4.453125 -0.765625 L 1.171875 -0.765625 C 1.25 -1.296875 1.53125 -1.625 2.296875 -2.09375 L 3.171875 -2.59375 C 4.046875 -3.0625 4.5 -3.71875 4.5 -4.5 C 4.5 -5.03125 4.28125 -5.53125 3.921875 -5.875 C 3.546875 -6.203125 3.09375 -6.359375 2.5 -6.359375 C 1.703125 -6.359375 1.125 -6.078125 0.78125 -5.53125 C 0.546875 -5.203125 0.453125 -4.796875 0.4375 -4.15625 L 1.21875 -4.15625 C 1.234375 -4.59375 1.296875 -4.84375 1.40625 -5.0625 C 1.59375 -5.4375 2 -5.6875 2.46875 -5.6875 C 3.171875 -5.6875 3.703125 -5.171875 3.703125 -4.484375 C 3.703125 -3.96875 3.40625 -3.53125 2.859375 -3.21875 L 2.046875 -2.75 C 0.75 -2 0.375 -1.40625 0.296875 -0.015625 L 4.453125 -0.015625 Z M 4.453125 -0.765625 "/>
</g>
<g id="glyph-0-3">
<path d="M 1.9375 -2.921875 L 2.359375 -2.921875 C 3.203125 -2.921875 3.65625 -2.53125 3.65625 -1.765625 C 3.65625 -0.96875 3.171875 -0.484375 2.375 -0.484375 C 1.515625 -0.484375 1.109375 -0.921875 1.0625 -1.84375 L 0.28125 -1.84375 C 0.3125 -1.34375 0.40625 -1 0.546875 -0.71875 C 0.875 -0.109375 1.484375 0.203125 2.34375 0.203125 C 3.625 0.203125 4.453125 -0.578125 4.453125 -1.78125 C 4.453125 -2.59375 4.140625 -3.03125 3.390625 -3.296875 C 3.96875 -3.53125 4.265625 -3.96875 4.265625 -4.609375 C 4.265625 -5.703125 3.546875 -6.359375 2.359375 -6.359375 C 1.109375 -6.359375 0.4375 -5.65625 0.40625 -4.3125 L 1.1875 -4.3125 C 1.203125 -4.703125 1.234375 -4.921875 1.328125 -5.109375 C 1.5 -5.46875 1.890625 -5.6875 2.375 -5.6875 C 3.0625 -5.6875 3.46875 -5.265625 3.46875 -4.578125 C 3.46875 -4.140625 3.3125 -3.859375 2.96875 -3.71875 C 2.765625 -3.625 2.484375 -3.59375 1.9375 -3.578125 Z M 1.9375 -2.921875 "/>
</g>
<g id="glyph-0-4">
<path d="M 4.875 0 L 6.234375 -4.609375 L 5.40625 -4.609375 L 4.484375 -1.015625 L 3.578125 -4.609375 L 2.6875 -4.609375 L 1.796875 -1.015625 L 0.859375 -4.609375 L 0.046875 -4.609375 L 1.390625 0 L 2.21875 0 L 3.109375 -3.609375 L 4.03125 0 Z M 4.875 0 "/>
</g>
<g id="glyph-0-5">
<path d="M 0.609375 -6.40625 L 0.609375 0 L 1.34375 0 L 1.34375 -2.546875 C 1.34375 -3.484375 1.84375 -4.09375 2.59375 -4.09375 C 2.84375 -4.09375 3.0625 -4.03125 3.25 -3.890625 C 3.453125 -3.734375 3.546875 -3.515625 3.546875 -3.1875 L 3.546875 0 L 4.28125 0 L 4.28125 -3.484375 C 4.28125 -4.25 3.71875 -4.734375 2.828125 -4.734375 C 2.171875 -4.734375 1.78125 -4.546875 1.34375 -3.96875 L 1.34375 -6.40625 Z M 0.609375 -6.40625 "/>
</g>
<g id="glyph-0-6">
<path d="M 1.3125 -4.609375 L 0.59375 -4.609375 L 0.59375 0 L 1.3125 0 Z M 1.3125 -6.40625 L 0.578125 -6.40625 L 0.578125 -5.484375 L 1.3125 -5.484375 Z M 1.3125 -6.40625 "/>
</g>
<g id="glyph-0-7">
<path d="M 2.234375 -4.609375 L 1.484375 -4.609375 L 1.484375 -5.875 L 0.75 -5.875 L 0.75 -4.609375 L 0.125 -4.609375 L 0.125 -4.015625 L 0.75 -4.015625 L 0.75 -0.53125 C 0.75 -0.046875 1.0625 0.203125 1.640625 0.203125 C 1.828125 0.203125 1.984375 0.1875 2.234375 0.140625 L 2.234375 -0.46875 C 2.125 -0.453125 2.03125 -0.4375 1.875 -0.4375 C 1.5625 -0.4375 1.484375 -0.53125 1.484375 -0.859375 L 1.484375 -4.015625 L 2.234375 -4.015625 Z M 2.234375 -4.609375 "/>
</g>
<g id="glyph-0-8">
<path d="M 4.515625 -2.0625 C 4.515625 -2.765625 4.453125 -3.1875 4.328125 -3.53125 C 4.03125 -4.28125 3.328125 -4.734375 2.46875 -4.734375 C 1.171875 -4.734375 0.359375 -3.765625 0.359375 -2.25 C 0.359375 -0.71875 1.140625 0.203125 2.453125 0.203125 C 3.5 0.203125 4.234375 -0.390625 4.421875 -1.40625 L 3.671875 -1.40625 C 3.46875 -0.796875 3.0625 -0.46875 2.46875 -0.46875 C 2 -0.46875 1.609375 -0.6875 1.359375 -1.078125 C 1.1875 -1.34375 1.125 -1.59375 1.125 -2.0625 Z M 1.140625 -2.65625 C 1.203125 -3.515625 1.71875 -4.0625 2.453125 -4.0625 C 3.203125 -4.0625 3.71875 -3.484375 3.71875 -2.65625 Z M 1.140625 -2.65625 "/>
</g>
<g id="glyph-0-9">
<path d="M 0.46875 1.921875 L 1.21875 1.921875 L 1.21875 -0.484375 C 1.59375 -0.015625 2.03125 0.203125 2.625 0.203125 C 3.828125 0.203125 4.59375 -0.75 4.59375 -2.21875 C 4.59375 -3.78125 3.84375 -4.734375 2.625 -4.734375 C 2 -4.734375 1.5 -4.453125 1.15625 -3.921875 L 1.15625 -4.609375 L 0.46875 -4.609375 Z M 2.5 -4.0625 C 3.3125 -4.0625 3.828125 -3.34375 3.828125 -2.25 C 3.828125 -1.203125 3.296875 -0.484375 2.5 -0.484375 C 1.71875 -0.484375 1.21875 -1.1875 1.21875 -2.265625 C 1.21875 -3.359375 1.71875 -4.0625 2.5 -4.0625 Z M 2.5 -4.0625 "/>
</g>
<g id="glyph-0-10">
<path d="M 4.234375 0 L 4.234375 -4.609375 L 3.515625 -4.609375 L 3.515625 -2 C 3.515625 -1.0625 3.015625 -0.4375 2.25 -0.4375 C 1.671875 -0.4375 1.296875 -0.796875 1.296875 -1.34375 L 1.296875 -4.609375 L 0.578125 -4.609375 L 0.578125 -1.0625 C 0.578125 -0.296875 1.140625 0.203125 2.046875 0.203125 C 2.71875 0.203125 3.15625 -0.03125 3.578125 -0.640625 L 3.578125 0 Z M 4.234375 0 "/>
</g>
<g id="glyph-0-11">
<path d="M 0.609375 -4.609375 L 0.609375 0 L 1.34375 0 L 1.34375 -2.390625 C 1.359375 -3.5 1.8125 -4 2.828125 -3.96875 L 2.828125 -4.71875 C 2.703125 -4.734375 2.625 -4.734375 2.546875 -4.734375 C 2.0625 -4.734375 1.703125 -4.453125 1.28125 -3.78125 L 1.28125 -4.609375 Z M 0.609375 -4.609375 "/>
</g>
<g id="glyph-0-12">
<path d="M 1.34375 -6.40625 L 0.59375 -6.40625 L 0.59375 0 L 1.34375 0 Z M 1.34375 -6.40625 "/>
</g>
<g id="glyph-1-0">
<path d="M -5.53125 -7.28125 C -7.296875 -6.96875 -8.15625 -5.953125 -8.15625 -4.1875 C -8.15625 -3.109375 -7.8125 -2.25 -7.15625 -1.65625 C -6.359375 -0.921875 -5.21875 -0.53125 -3.921875 -0.53125 C -2.59375 -0.53125 -1.46875 -0.9375 -0.6875 -1.6875 C -0.046875 -2.3125 0.25 -3.109375 0.25 -4.140625 C 0.25 -6.109375 -0.796875 -7.203125 -2.921875 -7.453125 L -2.921875 -6.390625 C -2.375 -6.296875 -2 -6.1875 -1.6875 -6.03125 C -1.015625 -5.703125 -0.65625 -5.015625 -0.65625 -4.15625 C -0.65625 -2.5625 -1.921875 -1.546875 -3.921875 -1.546875 C -5.984375 -1.546875 -7.25 -2.515625 -7.25 -4.0625 C -7.25 -4.71875 -7.0625 -5.328125 -6.75 -5.65625 C -6.46875 -5.953125 -6.140625 -6.109375 -5.53125 -6.234375 Z M -5.53125 -7.28125 "/>
</g>
<g id="glyph-1-1">
<path d="M -5.921875 -2.984375 C -5.921875 -1.359375 -4.78125 -0.390625 -2.84375 -0.390625 C -0.890625 -0.390625 0.25 -1.359375 0.25 -3 C 0.25 -4.625 -0.90625 -5.609375 -2.796875 -5.609375 C -4.796875 -5.609375 -5.921875 -4.65625 -5.921875 -2.984375 Z M -5.078125 -3 C -5.078125 -4.03125 -4.234375 -4.65625 -2.8125 -4.65625 C -1.4375 -4.65625 -0.59375 -4.015625 -0.59375 -3 C -0.59375 -1.984375 -1.4375 -1.359375 -2.84375 -1.359375 C -4.234375 -1.359375 -5.078125 -1.984375 -5.078125 -3 Z M -5.078125 -3 "/>
</g>
<g id="glyph-1-2">
<path d="M 0 -5.296875 L -5.765625 -5.296875 L -5.765625 -4.390625 L -2.5 -4.390625 C -1.3125 -4.390625 -0.546875 -3.765625 -0.546875 -2.8125 C -0.546875 -2.09375 -0.984375 -1.625 -1.6875 -1.625 L -5.765625 -1.625 L -5.765625 -0.71875 L -1.3125 -0.71875 C -0.359375 -0.71875 0.25 -1.4375 0.25 -2.546875 C 0.25 -3.40625 -0.046875 -3.9375 -0.796875 -4.484375 L 0 -4.484375 Z M 0 -5.296875 "/>
</g>
<g id="glyph-1-3">
<path d="M -5.765625 -0.765625 L 0 -0.765625 L 0 -1.6875 L -3.171875 -1.6875 C -4.359375 -1.6875 -5.125 -2.3125 -5.125 -3.25 C -5.125 -3.984375 -4.6875 -4.4375 -4 -4.4375 L 0 -4.4375 L 0 -5.359375 L -4.359375 -5.359375 C -5.3125 -5.359375 -5.921875 -4.640625 -5.921875 -3.53125 C -5.921875 -2.671875 -5.59375 -2.125 -4.796875 -1.609375 L -5.765625 -1.609375 Z M -5.765625 -0.765625 "/>
</g>
<g id="glyph-1-4">
<path d="M -5.765625 -2.796875 L -5.765625 -1.84375 L -7.34375 -1.84375 L -7.34375 -0.9375 L -5.765625 -0.9375 L -5.765625 -0.15625 L -5.015625 -0.15625 L -5.015625 -0.9375 L -0.65625 -0.9375 C -0.0625 -0.9375 0.25 -1.328125 0.25 -2.046875 C 0.25 -2.28125 0.234375 -2.484375 0.171875 -2.796875 L -0.59375 -2.796875 C -0.5625 -2.65625 -0.546875 -2.546875 -0.546875 -2.359375 C -0.546875 -1.953125 -0.65625 -1.84375 -1.0625 -1.84375 L -5.015625 -1.84375 L -5.015625 -2.796875 Z M -5.765625 -2.796875 "/>
</g>
</g>
<clipPath id="clip-0">
<path clip-rule="nonzero" d="M 40.152344 181 L 282.523438 181 L 282.523438 183 L 40.152344 183 Z M 40.152344 181 "/>
</clipPath>
<clipPath id="clip-1">
<path clip-rule="nonzero" d="M 40.152344 129 L 282.523438 129 L 282.523438 131 L 40.152344 131 Z M 40.152344 129 "/>
</clipPath>
<clipPath id="clip-2">
<path clip-rule="nonzero" d="M 40.152344 77 L 282.523438 77 L 282.523438 79 L 40.152344 79 Z M 40.152344 77 "/>
</clipPath>
<clipPath id="clip-3">
<path clip-rule="nonzero" d="M 40.152344 25 L 282.523438 25 L 282.523438 27 L 40.152344 27 Z M 40.152344 25 "/>
</clipPath>
<clipPath id="clip-4">
<path clip-rule="nonzero" d="M 40.152344 207 L 282.523438 207 L 282.523438 209 L 40.152344 209 Z M 40.152344 207 "/>
</clipPath>
<clipPath id="clip-5">
<path clip-rule="nonzero" d="M 40.152344 155 L 282.523438 155 L 282.523438 157 L 40.152344 157 Z M 40.152344 155 "/>
</clipPath>
<clipPath id="clip-6">
<path clip-rule="nonzero" d="M 40.152344 103 L 282.523438 103 L 282.523438 105 L 40.152344 105 Z M 40.152344 103 "/>
</clipPath>
<clipPath id="clip-7">
<path clip-rule="nonzero" d="M 40.152344 51 L 282.523438 51 L 282.523438 53 L 40.152344 53 Z M 40.152344 51 "/>
</clipPath>
<clipPath id="clip-8">
<path clip-rule="nonzero" d="M 105 5.480469 L 107 5.480469 L 107 217.851562 L 105 217.851562 Z M 105 5.480469 "/>
</clipPath>
<clipPath id="clip-9">
<path clip-rule="nonzero" d="M 215 5.480469 L 217 5.480469 L 217 217.851562 L 215 217.851562 Z M 215 5.480469 "/>
</clipPath>
<clipPath id="clip-10">
<path clip-rule="nonzero" d="M 40.152344 207 L 282.523438 207 L 282.523438 209 L 40.152344 209 Z M 40.152344 207 "/>
</clipPath>
</defs>
<rect x="-28.8" y="-25.2" width="345.6" height="302.4" fill="rgb(100%, 100%, 100%)" fill-opacity="1"/>
<g clip-path="url(#clip-0)">
<path fill="none" stroke-width="0.533489" stroke-linecap="butt" stroke-linejoin="round" stroke="rgb(92.156863%, 92.156863%, 92.156863%)" stroke-opacity="1" stroke-miterlimit="10" d="M 40.152344 182.140625 L 282.519531 182.140625 "/>
</g>
<g clip-path="url(#clip-1)">
<path fill="none" stroke-width="0.533489" stroke-linecap="butt" stroke-linejoin="round" stroke="rgb(92.156863%, 92.156863%, 92.156863%)" stroke-opacity="1" stroke-miterlimit="10" d="M 40.152344 130.03125 L 282.519531 130.03125 "/>
</g>
<g clip-path="url(#clip-2)">
<path fill="none" stroke-width="0.533489" stroke-linecap="butt" stroke-linejoin="round" stroke="rgb(92.156863%, 92.156863%, 92.156863%)" stroke-opacity="1" stroke-miterlimit="10" d="M 40.152344 77.925781 L 282.519531 77.925781 "/>
</g>
<g clip-path="url(#clip-3)">
<path fill="none" stroke-width="0.533489" stroke-linecap="butt" stroke-linejoin="round" stroke="rgb(92.156863%, 92.156863%, 92.156863%)" stroke-opacity="1" stroke-miterlimit="10" d="M 40.152344 25.816406 L 282.519531 25.816406 "/>
</g>
<g clip-path="url(#clip-4)">
<path fill="none" stroke-width="1.066978" stroke-linecap="butt" stroke-linejoin="round" stroke="rgb(92.156863%, 92.156863%, 92.156863%)" stroke-opacity="1" stroke-miterlimit="10" d="M 40.152344 208.195312 L 282.519531 208.195312 "/>
</g>
<g clip-path="url(#clip-5)">
<path fill="none" stroke-width="1.066978" stroke-linecap="butt" stroke-linejoin="round" stroke="rgb(92.156863%, 92.156863%, 92.156863%)" stroke-opacity="1" stroke-miterlimit="10" d="M 40.152344 156.085938 L 282.519531 156.085938 "/>
</g>
<g clip-path="url(#clip-6)">
<path fill="none" stroke-width="1.066978" stroke-linecap="butt" stroke-linejoin="round" stroke="rgb(92.156863%, 92.156863%, 92.156863%)" stroke-opacity="1" stroke-miterlimit="10" d="M 40.152344 103.976562 L 282.519531 103.976562 "/>
</g>
<g clip-path="url(#clip-7)">
<path fill="none" stroke-width="1.066978" stroke-linecap="butt" stroke-linejoin="round" stroke="rgb(92.156863%, 92.156863%, 92.156863%)" stroke-opacity="1" stroke-miterlimit="10" d="M 40.152344 51.871094 L 282.519531 51.871094 "/>
</g>
<g clip-path="url(#clip-8)">
<path fill="none" stroke-width="1.066978" stroke-linecap="butt" stroke-linejoin="round" stroke="rgb(92.156863%, 92.156863%, 92.156863%)" stroke-opacity="1" stroke-miterlimit="10" d="M 106.25 217.847656 L 106.25 5.480469 "/>
</g>
<g clip-path="url(#clip-9)">
<path fill="none" stroke-width="1.066978" stroke-linecap="butt" stroke-linejoin="round" stroke="rgb(92.156863%, 92.156863%, 92.156863%)" stroke-opacity="1" stroke-miterlimit="10" d="M 216.417969 217.847656 L 216.417969 5.480469 "/>
</g>
<path fill-rule="nonzero" fill="rgb(42.745098%, 41.568627%, 65.882353%)" fill-opacity="1" d="M 166.84375 208.195312 L 265.996094 208.195312 L 265.996094 24.25 L 166.84375 24.25 Z M 166.84375 208.195312 "/>
<path fill-rule="nonzero" fill="rgb(80%, 80%, 80%)" fill-opacity="1" d="M 56.675781 208.195312 L 155.828125 208.195312 L 155.828125 134.722656 L 56.675781 134.722656 Z M 56.675781 208.195312 "/>
<path fill="none" stroke-width="1.066978" stroke-linecap="butt" stroke-linejoin="round" stroke="rgb(0%, 0%, 0%)" stroke-opacity="1" stroke-miterlimit="10" d="M 78.710938 143.839844 L 133.792969 143.839844 "/>
<path fill="none" stroke-width="1.066978" stroke-linecap="butt" stroke-linejoin="round" stroke="rgb(0%, 0%, 0%)" stroke-opacity="1" stroke-miterlimit="10" d="M 188.878906 15.132812 L 243.960938 15.132812 "/>
<g clip-path="url(#clip-10)">
<path fill="none" stroke-width="1.066978" stroke-linecap="butt" stroke-linejoin="round" stroke="rgb(40%, 40%, 40%)" stroke-opacity="1" stroke-miterlimit="10" d="M 40.152344 208.195312 L 282.519531 208.195312 "/>
</g>
<g fill="rgb(30.196078%, 30.196078%, 30.196078%)" fill-opacity="1">
<use xlink:href="#glyph-0-0" x="30.21875" y="211.110352"/>
</g>
<g fill="rgb(30.196078%, 30.196078%, 30.196078%)" fill-opacity="1">
<use xlink:href="#glyph-0-1" x="20.21875" y="159.000977"/>
<use xlink:href="#glyph-0-0" x="25.21875" y="159.000977"/>
<use xlink:href="#glyph-0-0" x="30.21875" y="159.000977"/>
</g>
<g fill="rgb(30.196078%, 30.196078%, 30.196078%)" fill-opacity="1">
<use xlink:href="#glyph-0-2" x="20.21875" y="106.891602"/>
<use xlink:href="#glyph-0-0" x="25.21875" y="106.891602"/>
<use xlink:href="#glyph-0-0" x="30.21875" y="106.891602"/>
</g>
<g fill="rgb(30.196078%, 30.196078%, 30.196078%)" fill-opacity="1">
<use xlink:href="#glyph-0-3" x="20.21875" y="54.786133"/>
<use xlink:href="#glyph-0-0" x="25.21875" y="54.786133"/>
<use xlink:href="#glyph-0-0" x="30.21875" y="54.786133"/>
</g>
<g fill="rgb(30.196078%, 30.196078%, 30.196078%)" fill-opacity="1">
<use xlink:href="#glyph-0-4" x="96.25" y="229.196289"/>
<use xlink:href="#glyph-0-5" x="102.25" y="229.196289"/>
<use xlink:href="#glyph-0-6" x="107.25" y="229.196289"/>
<use xlink:href="#glyph-0-7" x="109.25" y="229.196289"/>
<use xlink:href="#glyph-0-8" x="111.25" y="229.196289"/>
</g>
<g fill="rgb(30.196078%, 30.196078%, 30.196078%)" fill-opacity="1">
<use xlink:href="#glyph-0-9" x="203.917969" y="229.196289"/>
<use xlink:href="#glyph-0-10" x="208.917969" y="229.196289"/>
<use xlink:href="#glyph-0-11" x="213.917969" y="229.196289"/>
<use xlink:href="#glyph-0-9" x="216.917969" y="229.196289"/>
<use xlink:href="#glyph-0-12" x="221.917969" y="229.196289"/>
<use xlink:href="#glyph-0-8" x="223.917969" y="229.196289"/>
</g>
<g fill="rgb(0%, 0%, 0%)" fill-opacity="1">
<use xlink:href="#glyph-1-0" x="13.499023" y="126.164062"/>
<use xlink:href="#glyph-1-1" x="13.499023" y="118.164062"/>
<use xlink:href="#glyph-1-2" x="13.499023" y="112.164062"/>
<use xlink:href="#glyph-1-3" x="13.499023" y="106.164062"/>
<use xlink:href="#glyph-1-4" x="13.499023" y="100.164062"/>
</g>
</svg>
